<svg width="48" height="48" viewBox="0 0 48 48" fill="none" xmlns="http://www.w3.org/2000/svg">
<path d="M20.5413 5.43365C22.4532 3.52224 25.5522 3.52199 27.4638 5.43365L42.5709 20.5407C44.4814 22.4525 44.4819 25.5517 42.5709 27.4632L27.4638 42.5702L27.0909 42.9049C25.2962 44.3684 22.7064 44.3687 20.9118 42.9049L20.5413 42.5702L5.43429 27.4632C3.64205 25.6709 3.52916 22.834 5.09725 20.9112L5.43429 20.5407L20.5413 5.43365ZM25.7332 7.16427C24.7774 6.2085 23.2279 6.20876 22.272 7.16427L7.16491 22.2713C6.2094 23.2272 6.20914 24.7768 7.16491 25.7326L22.272 40.8372C23.2279 41.7931 24.7773 41.7931 25.7332 40.8372L40.8379 25.7326C41.7938 24.7767 41.7938 23.2272 40.8379 22.2713L25.7332 7.16427Z" fill="black"/>
<path d="M22.8551 12.2691C23.5004 11.5946 24.5465 11.5946 25.1918 12.2691L28.4568 15.6821C29.102 16.3566 29.102 17.4502 28.4568 18.1247L25.1918 21.5378C24.5465 22.2123 23.5004 22.2123 22.8551 21.5378L19.5901 18.1247C18.9449 17.4502 18.9449 16.3566 19.5901 15.6821L22.8551 12.2691Z" fill="black"/>
<path d="M22.8551 26.4652C23.5004 25.7907 24.5465 25.7907 25.1918 26.4652L28.4568 29.8783C29.102 30.5528 29.102 31.6464 28.4568 32.3209L25.1918 35.734C24.5465 36.4085 23.5004 36.4085 22.8551 35.734L19.5901 32.3209C18.9449 31.6464 18.9449 30.5528 19.5901 29.8783L22.8551 26.4652Z" fill="black"/>
<path d="M30.1543 19.367C30.7995 18.6925 31.8457 18.6925 32.4909 19.367L35.7559 22.7801C36.4012 23.4546 36.4012 24.5482 35.7559 25.2227L32.4909 28.6358C31.8457 29.3103 30.7995 29.3103 30.1543 28.6358L26.8893 25.2227C26.244 24.5482 26.244 23.4546 26.8893 22.7801L30.1543 19.367Z" fill="black"/>
</svg>
