<svg width="76" height="19" viewBox="0 0 76 19" fill="none" xmlns="http://www.w3.org/2000/svg">
<path d="M8.11133 2.26807C8.69713 1.68244 9.64669 1.68233 10.2324 2.26807L16.4033 8.43994C16.9891 9.02573 16.9891 9.97525 16.4033 10.561L10.2324 16.7319C9.64664 17.3177 8.69711 17.3177 8.11133 16.7319L1.93945 10.561C1.35372 9.9753 1.35382 9.02574 1.93945 8.43994L8.11133 2.26807Z" stroke="black"/>
<path d="M8.70315 4.70692C8.96676 4.43135 9.39417 4.43135 9.65778 4.70692L10.9917 6.10134C11.2553 6.37691 11.2553 6.82369 10.9917 7.09926L9.65778 8.49368C9.39417 8.76925 8.96676 8.76925 8.70315 8.49368L7.36922 7.09926C7.10561 6.82369 7.10561 6.37691 7.36922 6.10134L8.70315 4.70692Z" fill="black"/>
<path d="M8.70315 10.5068C8.96676 10.2312 9.39417 10.2312 9.65778 10.5068L10.9917 11.9012C11.2553 12.1768 11.2553 12.6236 10.9917 12.8991L9.65778 14.2936C9.39417 14.5691 8.96676 14.5691 8.70315 14.2936L7.36922 12.8991C7.10561 12.6236 7.10561 12.1768 7.36922 11.9012L8.70315 10.5068Z" fill="black"/>
<path d="M11.6852 7.60682C11.9488 7.33125 12.3763 7.33125 12.6399 7.60682L13.9738 9.00124C14.2374 9.27681 14.2374 9.72359 13.9738 9.99916L12.6399 11.3936C12.3763 11.6691 11.9488 11.6691 11.6852 11.3936L10.3513 9.99916C10.0877 9.72359 10.0877 9.27681 10.3513 9.00124L11.6852 7.60682Z" fill="black"/>
<path d="M27.0136 3.36364H29.4454V11.4773C29.4454 12.2273 29.2769 12.8788 28.9397 13.4318C28.6064 13.9848 28.1424 14.411 27.5477 14.7102C26.953 15.0095 26.2617 15.1591 25.4738 15.1591C24.7731 15.1591 24.1367 15.036 23.5647 14.7898C22.9965 14.5398 22.5458 14.161 22.2125 13.6534C21.8791 13.142 21.7144 12.5 21.7181 11.7273H24.167C24.1746 12.0341 24.2371 12.2973 24.3545 12.517C24.4757 12.733 24.6405 12.8996 24.8488 13.017C25.0609 13.1307 25.3109 13.1875 25.5988 13.1875C25.9019 13.1875 26.1575 13.1231 26.3659 12.9943C26.578 12.8617 26.739 12.6686 26.8488 12.4148C26.9587 12.161 27.0136 11.8485 27.0136 11.4773V3.36364ZM37.792 6.71023C37.7465 6.25189 37.5515 5.89583 37.2068 5.64205C36.8621 5.38826 36.3943 5.26136 35.8034 5.26136C35.4019 5.26136 35.0628 5.31818 34.7863 5.43182C34.5098 5.54167 34.2977 5.69508 34.15 5.89205C34.006 6.08902 33.934 6.3125 33.934 6.5625C33.9265 6.77083 33.97 6.95265 34.0647 7.10795C34.1632 7.26326 34.2977 7.39773 34.4681 7.51136C34.6386 7.62121 34.8356 7.7178 35.059 7.80114C35.2825 7.88068 35.5212 7.94886 35.775 8.00568L36.8204 8.25568C37.328 8.36932 37.7939 8.52083 38.2181 8.71023C38.6424 8.89962 39.0098 9.13258 39.3204 9.40909C39.631 9.68561 39.8715 10.0114 40.042 10.3864C40.2162 10.7614 40.3053 11.1913 40.309 11.6761C40.3053 12.3883 40.1234 13.0057 39.7636 13.5284C39.4075 14.0473 38.8924 14.4508 38.2181 14.7386C37.5477 15.0227 36.739 15.1648 35.792 15.1648C34.8526 15.1648 34.0344 15.0208 33.3375 14.733C32.6443 14.4451 32.1026 14.0189 31.7125 13.4545C31.3261 12.8864 31.1234 12.1837 31.1045 11.3466H33.4852C33.5117 11.7367 33.6234 12.0625 33.8204 12.3239C34.0212 12.5814 34.2882 12.7765 34.6215 12.9091C34.9587 13.0379 35.3394 13.1023 35.7636 13.1023C36.1803 13.1023 36.542 13.0417 36.8488 12.9205C37.1594 12.7992 37.4 12.6307 37.5704 12.4148C37.7409 12.1989 37.8261 11.9508 37.8261 11.6705C37.8261 11.4091 37.7484 11.1894 37.5931 11.0114C37.4416 10.8333 37.2181 10.6818 36.9227 10.5568C36.631 10.4318 36.2731 10.3182 35.8488 10.2159L34.5818 9.89773C33.6007 9.65909 32.8261 9.28598 32.2579 8.77841C31.6897 8.27083 31.4075 7.58712 31.4113 6.72727C31.4075 6.02273 31.595 5.4072 31.9738 4.88068C32.3564 4.35417 32.881 3.94318 33.5477 3.64773C34.2144 3.35227 34.9719 3.20455 35.8204 3.20455C36.684 3.20455 37.4378 3.35227 38.0818 3.64773C38.7295 3.94318 39.2333 4.35417 39.5931 4.88068C39.953 5.4072 40.1386 6.01705 40.15 6.71023H37.792Z" fill="black"/>
<path d="M46.7437 15.1278C46.1414 15.1278 45.6215 15.0199 45.184 14.804C44.7465 14.5881 44.4099 14.2955 44.1741 13.9261C43.9412 13.554 43.8247 13.1392 43.8247 12.6818C43.8247 12.3409 43.8929 12.0384 44.0292 11.7741C44.1656 11.5099 44.3559 11.267 44.6002 11.0455C44.8446 10.821 45.1287 10.598 45.4525 10.3764L47.1443 9.2642C47.363 9.125 47.5235 8.97869 47.6258 8.82528C47.7281 8.66903 47.7792 8.5 47.7792 8.31818C47.7792 8.14489 47.7096 7.98437 47.5704 7.83665C47.4312 7.68892 47.2338 7.61648 46.9781 7.61932C46.8076 7.61932 46.6599 7.65767 46.5349 7.73438C46.4099 7.80824 46.3119 7.90625 46.2409 8.02841C46.1727 8.14773 46.1386 8.28125 46.1386 8.42898C46.1386 8.6108 46.1897 8.79545 46.292 8.98295C46.3943 9.17045 46.5306 9.36932 46.7011 9.57955C46.8715 9.78693 47.0576 10.0114 47.2593 10.2528L51.3971 15H49.5051L46.0534 11.1562C45.8261 10.8977 45.5988 10.6278 45.3715 10.3466C45.1471 10.0625 44.9596 9.76136 44.809 9.44318C44.6585 9.12216 44.5832 8.77415 44.5832 8.39915C44.5832 7.97585 44.6812 7.59517 44.8772 7.2571C45.0761 6.91903 45.3545 6.65199 45.7125 6.45597C46.0704 6.2571 46.488 6.15767 46.9653 6.15767C47.4312 6.15767 47.8332 6.25284 48.1713 6.44318C48.5122 6.63068 48.7735 6.88068 48.9554 7.19318C49.14 7.50284 49.2323 7.84375 49.2323 8.21591C49.2323 8.62784 49.1301 9.00142 48.9255 9.33665C48.7238 9.66903 48.4397 9.96733 48.0733 10.2315L46.292 11.5142C46.0505 11.6903 45.8715 11.8707 45.7551 12.0554C45.6414 12.2372 45.5846 12.4119 45.5846 12.5795C45.5846 12.7869 45.6358 12.973 45.738 13.1378C45.8403 13.3026 45.9852 13.4332 46.1727 13.5298C46.3602 13.6236 46.5804 13.6705 46.8332 13.6705C47.14 13.6705 47.4426 13.6009 47.7409 13.4616C48.042 13.3196 48.3147 13.1193 48.559 12.8608C48.8062 12.5994 49.0037 12.2898 49.1514 11.9318C49.2991 11.5739 49.373 11.1776 49.373 10.7429H50.8772C50.8772 11.277 50.819 11.7585 50.7025 12.1875C50.586 12.6136 50.4241 12.9858 50.2167 13.304C50.0093 13.6193 49.7721 13.8778 49.5051 14.0795C49.4198 14.1335 49.3375 14.1847 49.2579 14.233C49.1784 14.2812 49.096 14.3324 49.0108 14.3864C48.6869 14.6477 48.3247 14.8366 47.9241 14.9531C47.5264 15.0696 47.1329 15.1278 46.7437 15.1278Z" fill="black"/>
<path d="M52.9113 5.39205V3.36364H62.4681V5.39205H58.9056V15H56.4738V5.39205H52.9113ZM70.3545 6.71023C70.309 6.25189 70.114 5.89583 69.7693 5.64205C69.4246 5.38826 68.9568 5.26136 68.3659 5.26136C67.9644 5.26136 67.6253 5.31818 67.3488 5.43182C67.0723 5.54167 66.8602 5.69508 66.7125 5.89205C66.5685 6.08902 66.4965 6.3125 66.4965 6.5625C66.489 6.77083 66.5325 6.95265 66.6272 7.10795C66.7257 7.26326 66.8602 7.39773 67.0306 7.51136C67.2011 7.62121 67.3981 7.7178 67.6215 7.80114C67.845 7.88068 68.0837 7.94886 68.3375 8.00568L69.3829 8.25568C69.8905 8.36932 70.3564 8.52083 70.7806 8.71023C71.2049 8.89962 71.5723 9.13258 71.8829 9.40909C72.1935 9.68561 72.434 10.0114 72.6045 10.3864C72.7787 10.7614 72.8678 11.1913 72.8715 11.6761C72.8678 12.3883 72.6859 13.0057 72.3261 13.5284C71.97 14.0473 71.4549 14.4508 70.7806 14.7386C70.1102 15.0227 69.3015 15.1648 68.3545 15.1648C67.4151 15.1648 66.5969 15.0208 65.9 14.733C65.2068 14.4451 64.6651 14.0189 64.275 13.4545C63.8886 12.8864 63.6859 12.1837 63.667 11.3466H66.0477C66.0742 11.7367 66.1859 12.0625 66.3829 12.3239C66.5837 12.5814 66.8507 12.7765 67.184 12.9091C67.5212 13.0379 67.9019 13.1023 68.3261 13.1023C68.7428 13.1023 69.1045 13.0417 69.4113 12.9205C69.7219 12.7992 69.9625 12.6307 70.1329 12.4148C70.3034 12.1989 70.3886 11.9508 70.3886 11.6705C70.3886 11.4091 70.3109 11.1894 70.1556 11.0114C70.0041 10.8333 69.7806 10.6818 69.4852 10.5568C69.1935 10.4318 68.8356 10.3182 68.4113 10.2159L67.1443 9.89773C66.1632 9.65909 65.3886 9.28598 64.8204 8.77841C64.2522 8.27083 63.97 7.58712 63.9738 6.72727C63.97 6.02273 64.1575 5.4072 64.5363 4.88068C64.9189 4.35417 65.4435 3.94318 66.1102 3.64773C66.7769 3.35227 67.5344 3.20455 68.3829 3.20455C69.2465 3.20455 70.0003 3.35227 70.6443 3.64773C71.292 3.94318 71.7958 4.35417 72.1556 4.88068C72.5155 5.4072 72.7011 6.01705 72.7125 6.71023H70.3545Z" fill="black"/>
</svg>
